<?xml version="1.0" encoding="utf-8"?>
<!-- Generator: Adobe Illustrator 16.0.3, SVG Export Plug-In . SVG Version: 6.00 Build 0)  -->
<!DOCTYPE svg PUBLIC "-//W3C//DTD SVG 1.1//EN" "http://www.w3.org/Graphics/SVG/1.1/DTD/svg11.dtd">
<svg version="1.1" xmlns="http://www.w3.org/2000/svg" xmlns:xlink="http://www.w3.org/1999/xlink" x="0px" y="0px" width="163px"
	 height="208px" viewBox="0 0 163 208" enable-background="new 0 0 163 208" xml:space="preserve">
<g id="Capa_2">
	<linearGradient id="SVGID_1_" gradientUnits="userSpaceOnUse" x1="83.6924" y1="118.7505" x2="85.4724" y2="227.3372">
		<stop  offset="0" style="stop-color:#10782B"/>
		<stop  offset="0.6829" style="stop-color:#152E35"/>
		<stop  offset="1" style="stop-color:#0F1F1C"/>
	</linearGradient>
	<path fill="url(#SVGID_1_)" d="M29.2,15.06V199h108.601V15.06H29.2z M129.189,189.465H50.63l-3.147-7.857l-3.53,7.857v-16.499
		l-6.677,12.177l2.356-160.655l79.346-1.964V37.45l4.714-10.999l1.57,18.461l3.928-15.8V189.465z"/>
	<path fill="none" stroke="#FFFFFF" stroke-width="1.1784" stroke-miterlimit="10" d="M67.521,46.876l1.964,33.781
		c0,0,9.82,3.535,16.498,0c0,0,14.135-16.105-1.377-28.675C84.605,51.983,72.234,44.912,67.521,46.876z"/>
	<g>
		<linearGradient id="SVGID_2_" gradientUnits="userSpaceOnUse" x1="113.6016" y1="96.7871" x2="114.78" y2="173.9715">
			<stop  offset="0" style="stop-color:#10782B"/>
			<stop  offset="0.6829" style="stop-color:#152E35"/>
			<stop  offset="1" style="stop-color:#0F1F1C"/>
		</linearGradient>
		<path fill="url(#SVGID_2_)" d="M103.697,104.63h20.787l-6.411,15.094c2.301,1.552,3.973,3.254,5.018,5.103
			c1.044,1.85,1.566,4.039,1.566,6.57c0,3.776-1.391,6.962-4.169,9.559c-2.78,2.598-6.201,3.896-10.264,3.896
			c-2.243,0-4.466-0.422-6.671-1.266v-11.098c1.667,1.035,3.115,1.553,4.342,1.553c1.342,0,2.468-0.479,3.378-1.438
			c0.91-0.958,1.365-2.146,1.365-3.565c0-1.629-0.68-2.928-2.041-3.896c-1.36-0.968-3.182-1.452-5.463-1.452l2.904-7.734h-4.342
			V104.63z"/>
	</g>
	<g>
		<linearGradient id="SVGID_3_" gradientUnits="userSpaceOnUse" x1="74.21" y1="73.2524" x2="80.102" y2="230.5689">
			<stop  offset="0" style="stop-color:#10782B"/>
			<stop  offset="0.6829" style="stop-color:#152E35"/>
			<stop  offset="1" style="stop-color:#0F1F1C"/>
		</linearGradient>
		<path fill="url(#SVGID_3_)" d="M69.779,66.878v111.963H46.479V25.705h29.901c9.105,0,16.165,4.414,21.177,13.238
			c5.585,9.872,8.379,22.399,8.379,37.583c0,15.481-3.463,28.534-10.388,39.153l13.431,63.162h-24.45l-11.306-49.362V90.101h1.836
			c4.897,0,7.346-4.112,7.346-12.34c0-7.253-2.833-10.882-8.494-10.882H69.779z"/>
	</g>
</g>
<g id="Capa_3">
</g>
</svg>
